<svg width="392" height="340" viewBox="0 0 392 340" fill="none" xmlns="http://www.w3.org/2000/svg">
<path opacity="0.5" d="M277.445 0C282.552 9.55524e-05 287.568 1.34187 291.989 3.89031C296.411 6.43874 300.081 10.1039 302.631 14.517L384.115 155.517C386.66 159.922 388 164.916 388 170.001C388 175.085 386.66 180.079 384.115 184.484L302.631 325.484C300.081 329.897 296.41 333.562 291.989 336.11C287.568 338.658 282.551 340 277.445 340H114.555C109.448 340 104.432 338.658 100.011 336.11C95.5893 333.561 91.9188 329.896 89.3686 325.483L7.88534 184.483C5.3399 180.078 4 175.084 4 169.999C4 164.915 5.3399 159.921 7.88534 155.516L89.3686 14.516C91.9189 10.1031 95.5895 6.43813 100.011 3.88987C104.432 1.34162 109.448 -5.70474e-06 114.555 0L277.445 0Z" fill="#0010F1"/>
<path opacity="0.4" d="M269.204 14C274.303 14.0004 279.312 15.3382 283.728 17.8794C288.144 20.4206 291.813 24.0757 294.366 28.478L368.021 155.478C370.581 159.892 371.929 164.901 371.929 170C371.929 175.099 370.581 180.108 368.021 184.522L294.366 311.522C291.813 315.924 288.144 319.579 283.728 322.121C279.312 324.662 274.303 326 269.204 326H121.792C116.694 326 111.685 324.662 107.268 322.121C102.852 319.579 99.1831 315.924 96.63 311.522L22.9721 184.522C20.4123 180.108 19.0645 175.099 19.0645 170C19.0645 164.901 20.4123 159.892 22.9721 155.478L96.627 28.478C99.1804 24.0753 102.85 20.4199 107.267 17.8787C111.684 15.3375 116.693 13.9998 121.792 14L269.204 14Z" fill="#0010F1"/>
<path d="M260.344 28C265.466 28 270.496 29.3496 274.927 31.9122C279.357 34.4747 283.03 38.1593 285.575 42.593L350.134 155.093C352.651 159.479 353.975 164.446 353.975 169.5C353.975 174.554 352.651 179.521 350.134 183.907L285.575 296.407C283.03 300.841 279.357 304.525 274.927 307.088C270.496 309.65 265.466 311 260.344 311H131.656C126.535 311 121.505 309.65 117.074 307.088C112.644 304.525 108.97 300.841 106.426 296.407L41.8667 183.907C39.3496 179.521 38.0254 174.554 38.0254 169.5C38.0254 164.446 39.3496 159.479 41.8667 155.093L106.426 42.593C108.97 38.1593 112.644 34.4747 117.074 31.9122C121.505 29.3496 126.535 28 131.656 28L260.344 28Z" fill="#0010F1"/>
<g clip-path="url(#clip0_1383_1356)">
<mask id="mask0_1383_1356" style="mask-type:luminance" maskUnits="userSpaceOnUse" x="106" y="117" width="180" height="106">
<path d="M286 117H106V222.551H286V117Z" fill="white"/>
</mask>
<g mask="url(#mask0_1383_1356)">
<path d="M157.31 155.334C157.31 157.506 157.545 159.267 157.956 160.559C158.425 161.85 159.012 163.259 159.833 164.786C160.126 165.255 160.244 165.725 160.244 166.136C160.244 166.723 159.892 167.31 159.129 167.897L155.433 170.363C154.905 170.715 154.377 170.891 153.908 170.891C153.321 170.891 152.735 170.597 152.148 170.069C151.327 169.189 150.623 168.249 150.036 167.31C149.449 166.312 148.863 165.197 148.217 163.846C143.641 169.247 137.892 171.948 130.97 171.948C126.042 171.948 122.111 170.539 119.237 167.721C116.362 164.903 114.896 161.146 114.896 156.45C114.896 151.46 116.655 147.409 120.234 144.356C123.813 141.304 128.564 139.777 134.607 139.777C136.602 139.777 138.655 139.954 140.825 140.247C142.996 140.541 145.225 141.01 147.572 141.539V137.253C147.572 132.792 146.633 129.68 144.815 127.86C142.937 126.041 139.77 125.16 135.252 125.16C133.199 125.16 131.087 125.395 128.917 125.923C126.746 126.451 124.634 127.097 122.581 127.919C121.642 128.33 120.938 128.565 120.527 128.682C120.117 128.8 119.823 128.858 119.589 128.858C118.767 128.858 118.357 128.271 118.357 127.039V124.162C118.357 123.223 118.474 122.518 118.767 122.107C119.061 121.696 119.589 121.285 120.41 120.875C122.463 119.818 124.927 118.937 127.802 118.233C130.676 117.47 133.727 117.117 136.954 117.117C143.935 117.117 149.039 118.702 152.324 121.872C155.55 125.043 157.193 129.856 157.193 136.314V155.334H157.31ZM133.492 164.257C135.428 164.257 137.423 163.905 139.535 163.201C141.647 162.496 143.524 161.205 145.108 159.444C146.047 158.328 146.751 157.095 147.103 155.686C147.455 154.278 147.689 152.575 147.689 150.579V148.114C145.988 147.703 144.169 147.35 142.292 147.116C140.415 146.881 138.596 146.763 136.778 146.763C132.847 146.763 129.972 147.526 128.037 149.111C126.101 150.697 125.162 152.927 125.162 155.863C125.162 158.622 125.866 160.676 127.333 162.085C128.74 163.553 130.794 164.257 133.492 164.257ZM180.6 170.597C179.545 170.597 178.841 170.421 178.371 170.01C177.902 169.658 177.491 168.836 177.139 167.721L163.353 122.342C163.001 121.168 162.825 120.405 162.825 119.994C162.825 119.055 163.294 118.526 164.233 118.526H169.982C171.097 118.526 171.859 118.702 172.27 119.113C172.739 119.466 173.091 120.287 173.443 121.403L183.299 160.265L192.451 121.403C192.744 120.229 193.096 119.466 193.565 119.113C194.035 118.761 194.856 118.526 195.913 118.526H200.606C201.72 118.526 202.482 118.702 202.952 119.113C203.421 119.466 203.832 120.287 204.066 121.403L213.336 160.735L223.485 121.403C223.837 120.229 224.248 119.466 224.658 119.113C225.127 118.761 225.89 118.526 226.946 118.526H232.401C233.341 118.526 233.868 118.996 233.868 119.994C233.868 120.287 233.81 120.581 233.751 120.933C233.693 121.285 233.575 121.755 233.341 122.401L219.203 167.78C218.85 168.954 218.439 169.717 217.97 170.069C217.501 170.421 216.739 170.656 215.741 170.656H210.696C209.581 170.656 208.818 170.48 208.349 170.069C207.88 169.658 207.47 168.895 207.234 167.721L198.142 129.856L189.107 167.662C188.814 168.836 188.462 169.6 187.992 170.01C187.523 170.421 186.702 170.597 185.646 170.597H180.6ZM255.986 172.183C252.934 172.183 249.884 171.83 246.951 171.126C244.017 170.421 241.729 169.658 240.205 168.778C239.265 168.249 238.62 167.662 238.386 167.134C238.151 166.606 238.034 166.018 238.034 165.49V162.496C238.034 161.263 238.503 160.676 239.383 160.676C239.735 160.676 240.087 160.735 240.439 160.852C240.791 160.97 241.319 161.205 241.906 161.44C243.9 162.32 246.071 163.024 248.359 163.494C250.705 163.964 252.993 164.199 255.34 164.199C259.036 164.199 261.91 163.553 263.905 162.261C265.9 160.97 266.955 159.091 266.955 156.684C266.955 155.041 266.428 153.691 265.372 152.575C264.316 151.46 262.321 150.462 259.446 149.522L250.94 146.881C246.658 145.531 243.489 143.535 241.553 140.893C239.618 138.31 238.62 135.433 238.62 132.381C238.62 129.915 239.148 127.743 240.205 125.864C241.26 123.986 242.668 122.342 244.429 121.051C246.188 119.7 248.183 118.702 250.529 117.998C252.876 117.294 255.34 117 257.921 117C259.212 117 260.562 117.059 261.852 117.235C263.201 117.411 264.433 117.646 265.665 117.881C266.838 118.174 267.953 118.468 269.009 118.82C270.065 119.172 270.886 119.524 271.473 119.877C272.295 120.346 272.881 120.816 273.233 121.344C273.585 121.814 273.761 122.46 273.761 123.281V126.041C273.761 127.273 273.291 127.919 272.412 127.919C271.942 127.919 271.179 127.684 270.183 127.215C266.838 125.688 263.084 124.925 258.919 124.925C255.574 124.925 252.934 125.453 251.116 126.569C249.298 127.684 248.359 129.387 248.359 131.794C248.359 133.437 248.946 134.846 250.119 135.962C251.292 137.077 253.462 138.192 256.572 139.19L264.902 141.832C269.126 143.182 272.177 145.061 273.995 147.468C275.814 149.875 276.694 152.634 276.694 155.686C276.694 158.211 276.166 160.5 275.169 162.496C274.112 164.492 272.705 166.253 270.886 167.662C269.067 169.13 266.897 170.187 264.374 170.95C261.734 171.772 258.977 172.183 255.986 172.183Z" fill="white"/>
<path fill-rule="evenodd" clip-rule="evenodd" d="M267.074 200.713C247.772 214.979 219.73 222.551 195.619 222.551C161.828 222.551 131.381 210.047 108.384 189.266C106.565 187.622 108.208 185.391 110.379 186.683C135.253 201.124 165.935 209.871 197.673 209.871C219.085 209.871 242.61 205.409 264.257 196.251C267.484 194.784 270.241 198.365 267.074 200.713Z" fill="white"/>
<path fill-rule="evenodd" clip-rule="evenodd" d="M275.11 191.555C272.646 188.385 258.801 190.029 252.524 190.792C250.648 191.027 250.353 189.383 252.055 188.15C263.084 180.401 281.212 182.632 283.324 185.215C285.436 187.857 282.736 205.997 272.412 214.685C270.828 216.035 269.303 215.331 270.007 213.569C272.353 207.758 277.574 194.667 275.11 191.555Z" fill="white"/>
</g>
</g>
<defs>
<clipPath id="clip0_1383_1356">
<rect width="180" height="105.551" fill="white" transform="translate(106 117)"/>
</clipPath>
</defs>
</svg>
