<svg xmlns="http://www.w3.org/2000/svg" xmlns:xlink="http://www.w3.org/1999/xlink" version="1.1" width="1000" height="1000" viewBox="0 0 1000 1000" xml:space="preserve">
<desc>Created with Fabric.js 3.5.0</desc>
<defs>
</defs>
<rect x="0" y="0" width="100%" height="100%" fill="#ffffff"/>
<g transform="matrix(4.134 0 0 4.8485 504.0476 514.066)" id="681531">
<path style="stroke: none; stroke-width: 20; stroke-dasharray: none; stroke-linecap: round; stroke-dashoffset: 0; stroke-linejoin: miter; stroke-miterlimit: 4; is-custom-font: none; font-file-url: none; fill: rgb(170,170,255); fill-rule: evenodd; opacity: 1;" vector-effect="non-scaling-stroke" transform=" translate(-312.0472, -239.1811)" d="m 278.319977 140.181091 c -9.2453 0 -16.863708 7.799393 -16.863708 17.264267 l 0 11.509537 l -5.621216 0 c 0 -6.276688 -5.111328 -11.509537 -11.242401 -11.509537 l -5.621185 0 c -6.131073 0 -11.242401 5.232849 -11.242401 11.509537 c -18.587708 0 -33.727325 15.499329 -33.727325 34.528625 l 0 48.016388 l 0 23.918182 c 0 19.029327 15.139618 34.528656 33.727325 34.528656 l 64.749329 0 c 13.220154 17.157501 33.649414 28.234222 56.598572 28.234344 c 23.734772 0 44.763489 -11.860046 57.916077 -30.032684 c 13.394043 -4.575256 23.099701 -17.50592 23.099701 -32.730316 l 0 -23.918182 l 0 -48.016388 c 0 -19.029297 -15.139648 -34.528625 -33.727325 -34.528625 l -39.348511 0 l 0 -11.509537 c 0 -9.464874 -7.618378 -17.264267 -16.863617 -17.264267 l -61.833313 0 z m 0 11.509598 l 61.833313 0 c 3.211426 0 5.621216 2.466965 5.621216 5.754669 l 0 23.019135 l 50.590912 0 c 12.553864 0 22.484863 10.166946 22.484863 23.019028 l 0 22.353607 c -3.797272 -3.491821 -8.396332 -6.034271 -13.438202 -7.481201 c -13.228485 -16.94873 -33.549225 -27.856628 -56.335114 -27.856628 c -5.160706 0 -10.179993 0.576324 -15.036804 1.636566 c -4.467377 -1.233154 -9.132568 -1.978271 -13.982697 -1.978271 c -19.817719 0 -37.186523 10.75061 -46.97226 26.813629 l -45.35614 0 c -8.639648 0 -16.509186 3.371002 -22.484863 8.865906 l 0 -22.353607 c 0 -12.852081 9.930969 -23.019028 22.484863 -23.019028 l 44.969666 0 l 0 -23.019135 c 0 -3.287704 2.409851 -5.754669 5.621246 -5.754669 z m 19.674194 11.509476 c -4.573944 0 -8.431793 3.949478 -8.431793 8.632111 c 0 4.682739 3.857849 8.632217 8.431793 8.632217 l 22.484863 0 c 4.574036 0 8.431824 -3.949478 8.431824 -8.632217 c 0 -4.682632 -3.857788 -8.632111 -8.431824 -8.632111 l -22.484863 0 z m 22.063293 32.71225 c 0.584503 0 1.1427 0.085846 1.721527 0.107971 c -26.262878 11.046661 -44.829224 37.502167 -44.829224 68.319794 c 0 2.96286 0.211395 5.867371 0.544556 8.740082 c -4.534241 -7.662231 -7.184601 -16.615631 -7.184601 -26.238159 c 0 -28.144531 22.256348 -50.929688 49.747742 -50.929688 z m 29.019501 3.92041 c 34.833405 0 63.010345 28.846313 63.010345 64.507355 c -0.000061 35.661011 -28.176941 64.52533 -63.010345 64.52533 c -34.833435 0 -63.027863 -28.864319 -63.027863 -64.52533 c 0 -35.661041 28.194427 -64.507355 63.027863 -64.507355 z m 0 8.578278 c -30.123047 0 -54.631165 25.090302 -54.631165 55.929077 c 0 30.838745 24.508118 55.929199 54.631165 55.929199 c 30.123016 0 54.631195 -25.090454 54.631195 -55.929199 c 0 -30.838776 -24.508118 -55.929077 -54.631195 -55.929077 z m 0 5.75473 c 27.081604 0 49.009979 22.449249 49.009979 50.174347 c 0 1.75824 -0.091461 3.486023 -0.26355 5.197357 c -12.864471 -12.7211 -30.252045 -20.663208 -49.536896 -20.663208 c -18.50351 0 -35.32077 7.281555 -48.026215 19.098572 c -0.084625 -1.206085 -0.193268 -2.404419 -0.193268 -3.632721 c 0 -27.725098 21.928314 -50.174347 49.009949 -50.174347 z" stroke-linecap="round"/>
</g>
</svg>