<svg xmlns="http://www.w3.org/2000/svg" xmlns:xlink="http://www.w3.org/1999/xlink" version="1.1" width="1000" height="1000" viewBox="0 0 1000 1000" xml:space="preserve">
<desc>Created with Fabric.js 3.5.0</desc>
<defs>
</defs>
<rect x="0" y="0" width="100%" height="100%" fill="#ffffff"/>
<g transform="matrix(3.4597 0 0 3.4436 500.0031 499.9993)" id="758595">
<path style="stroke: none; stroke-width: 0; stroke-dasharray: none; stroke-linecap: butt; stroke-dashoffset: 0; stroke-linejoin: miter; stroke-miterlimit: 4; is-custom-font: none; font-file-url: none; fill: rgb(63,0,127); fill-rule: nonzero; opacity: 1;" vector-effect="non-scaling-stroke" transform=" translate(-349.8569, -346.5517)" d="m 338.371796 491.220367 c -60.896545 -4.18869 -114.371841 -52.395874 -129.46431 -110.759003 c -13.924042 -60.51712 13.727798 -128.664291 67.680801 -160.258652 c 34.703644 -20.812805 78.249908 -23.414886 116.656464 -12.573837 c 47.441681 14.639145 83.553955 57.028564 96.23053 104.322479 c 11.388367 43.582336 3.174561 93.068207 -27.09433 127.410858 c -27.414429 34.287506 -71.235596 54.041168 -115.057129 52.277252 c -2.986969 -0.062225 -5.97229 -0.203308 -8.952026 -0.419098 z m 36.296875 -6.858948 c 10.927368 -0.957428 9.006683 -4.322144 -0.932495 -5.176086 c -17.756744 -3.431549 -36.929718 -3.521027 -54.067078 2.496674 c 15.085602 7.303741 35.126282 5.423218 52.014191 3.243866 l 2.985382 -0.564423 l 0 -0.000031 z m -53.800934 -9.640503 c 7.798157 -7.989807 -0.337402 -27.081268 -7.152344 -34.645874 c -15.231873 -7.803558 -27.042938 -20.558929 -40.97467 -30.177704 c -10.492615 -3.834595 -20.726669 3.454559 -30.868927 5.924164 c -0.045288 10.063629 -0.699081 21.4263 8.121185 28.423523 c 14.52005 14.390533 32.045532 27.005402 51.825012 32.73761 c 6.353271 0.297211 13.025085 -0.090607 19.049744 -2.261719 z m 83.504059 0.402466 c 25.273102 -10.935303 48.980499 -28.508301 63.2323 -52.423523 c 5.131348 -6.882202 8.899261 -18.930725 -4.503906 -14.946259 c -16.836487 10.624451 -32.040039 23.773895 -49.287994 33.838928 c -10.45755 8.30307 -17.990784 19.729156 -25.42511 30.656067 c 2.59201 6.053131 11.016296 4.609802 15.984711 2.874786 z m 17.132385 -43.942261 c 12.704407 -10.459778 31.086334 -17.198273 37.755798 -33.064697 c 3.013489 -12.476868 3.250214 -25.389404 4.506775 -38.11676 c -12.658997 -11.274445 -28.206055 -18.919739 -43.406036 -26.143585 c -15.021973 1.207275 -27.162567 14.591919 -39.042419 23.2659 c -6.330078 3.507294 -4.705017 11.387848 -6.424988 17.429504 c -2.301636 14.127228 -4.966919 28.211334 -6.501282 42.449097 c 11.819336 8.776001 25.013702 16.830658 39.385193 20.2164 c 5.193268 0.064178 9.508057 -3.466431 13.726959 -6.035858 z m -90.612305 2.202026 c 11.505005 -4.403992 26.729187 -7.730042 32.130493 -19.959808 c 4.005127 -17.136902 6.232758 -34.674225 8.349426 -52.131195 c -11.43042 -10.90506 -23.63443 -22.402649 -38.622192 -28.093353 c -12.928955 -0.208313 -23.886932 8.965912 -35.391876 13.977234 c -15.478607 4.21402 -20.854736 18.338379 -21.53183 32.926056 c -4.541412 14.430176 0.670471 29.253601 13.722687 37.207214 c 11.399841 8.43045 26.051361 21.872833 41.343292 16.073853 z m -96.295929 -20.223938 c -9.333923 -17.312531 -15.771408 -36.272064 -18.341171 -55.777924 c -9.23085 1.864075 -0.840927 24.585724 1.70253 33.85675 c 4.352371 12.522919 11.010986 24.034943 17.91449 35.291962 c 1.262497 -4.631622 2.011047 -9.23172 -1.275848 -13.370789 z m -4.020111 -77.068848 c 4.076126 -5.838013 10.56366 -10.446533 13.008621 -17.116211 c 4.315323 -20.191956 11.354126 -39.684967 21.421707 -57.737091 c -0.425323 -11.663467 -13.414658 -18.749313 -19.881851 -5.897263 c -18.428223 23.791153 -32.884216 52.781754 -33.520447 83.380081 c -2.42305 10.494507 6.684479 18.129242 11.931015 5.702606 c 2.350723 -2.7742 4.69722 -5.552094 7.040955 -8.332123 z m 237.295959 14.46582 c 7.811188 -10.27829 18.606506 -22.477814 15.799255 -36.399658 c -4.888062 -26.398132 -18.407104 -51.462036 -39.173462 -68.665787 c -6.165222 -2.621475 -17.432861 -12.268341 -21.733795 -3.156555 c -6.35675 12.242294 -22.167053 23.81575 -16.470551 39.061661 c 4.883209 15.049866 8.445953 30.780029 15.564575 44.952087 c 13.094604 10.247345 28.263092 18.2117 43.513977 24.933563 l 2.5 -0.725311 l 0 0 z m -174.230042 -6.844116 c 12.091949 -6.121124 23.837006 -12.889282 35.628235 -19.562744 c 3.976013 -13.926422 8.966431 -27.532227 13.615662 -41.225647 c 0.650146 -14.806976 -12.526093 -25.445374 -21.340454 -35.830048 c -8.655853 -13.890961 -23.304199 -3.236084 -33.989899 1.844009 c -23.517609 12.59108 -28.916931 40.309097 -36.907242 63.446091 c 1.108658 8.664032 9.022293 15.895538 14.798325 22.372498 c 7.98291 8.032562 16.957977 18.76651 28.195374 8.955841 z m 86.730042 -74.844666 c 6.255493 -0.860199 13.24173 -0.230499 19.048706 -2.005157 c 8.686615 -9.375702 16.332733 -20.35968 19.951294 -32.682068 c -4.367798 -12.421921 -18.839325 -18.083313 -30.457214 -22.311615 c -14.801117 -4.414688 -30.649048 -6.576797 -46.011841 -4.832428 c -11.088684 5.67662 -30.979187 22.150284 -19.748596 34.918701 c 8.226013 9.818527 16.981995 19.175049 25.897644 28.366669 c 10.459259 0.102112 20.894318 -0.715973 31.320007 -1.454102 z" stroke-linecap="round"/>
</g>
</svg>